# xmcd CD database file
#
# Track frame offsets:
#	182
#	22210
#	43557
#	61810
#	86307
#	106550
#	127845
#	147745
#	170257
#	190480
#	215565
#	235230
#
# Disc length: 3390 seconds
#
# Revision: 0
# Processed by: cddbd v1.5.2PL0 Copyright (c) Steve Scherf et al.
# Submitted via: CDex 1.51
#
DISCID=a10d3c0c
DTITLE=Claude Tissendier quartet - Swingtime
DYEAR=1998
DGENRE=Jazz
TTITLE0=Running fingers
TTITLE1=A wink at the Lion
TTITLE2=B.C.B.G.
TTITLE3=The moon drives me loon
TTITLE4=Memories of hamp
TTITLE5=Opus one half
TTITLE6=Chez Sacha
TTITLE7=Swingtime variations
TTITLE8=Hello Benny
TTITLE9=I'm thru with love
TTITLE10=a wink at the count
TTITLE11=Dizzy spells
EXTD=YEAR: 1998
EXTT0=
EXTT1=
EXTT2=
EXTT3=
EXTT4=
EXTT5=
EXTT6=
EXTT7=
EXTT8=
EXTT9=
EXTT10=
EXTT11=
PLAYORDER=
